<svg width="1920" height="1080" viewBox="0 0 1920 1080" fill="none" xmlns="http://www.w3.org/2000/svg">
  <defs>
    <linearGradient id="bg2" x1="0%" y1="0%" x2="100%" y2="100%">
      <stop offset="0%" style="stop-color:#764ba2"/>
      <stop offset="100%" style="stop-color:#667eea"/>
    </linearGradient>
  </defs>
  <rect width="1920" height="1080" fill="url(#bg2)"/>

  <!-- Phone mockup -->
  <rect x="760" y="90" width="400" height="800" rx="40" fill="#1a1a2e" stroke="#333" stroke-width="4"/>
  <rect x="780" y="130" width="360" height="720" rx="10" fill="#16213e"/>

  <!-- Status bar -->
  <rect x="780" y="130" width="360" height="40" fill="#0f3460"/>
  <text x="960" y="158" font-family="Arial" font-size="16" fill="white" text-anchor="middle">9:41</text>

  <!-- Header -->
  <text x="960" y="210" font-family="Arial" font-size="24" fill="white" text-anchor="middle" font-weight="bold">Workout Plan</text>

  <!-- Current workout card -->
  <rect x="800" y="240" width="320" height="140" rx="20" fill="url(#bg2)"/>
  <text x="820" y="275" font-family="Arial" font-size="14" fill="rgba(255,255,255,0.8)">CURRENT WORKOUT</text>
  <text x="820" y="310" font-family="Arial" font-size="22" fill="white" font-weight="bold">Full Body Strength</text>
  <text x="820" y="345" font-family="Arial" font-size="16" fill="rgba(255,255,255,0.9)">12 exercises | 45 min</text>
  <rect x="820" y="360" width="100" height="8" rx="4" fill="rgba(255,255,255,0.3)"/>
  <rect x="820" y="360" width="60" height="8" rx="4" fill="white"/>

  <!-- Exercise list -->
  <text x="810" y="420" font-family="Arial" font-size="16" fill="white" font-weight="bold">Today's Exercises</text>

  <rect x="800" y="440" width="320" height="70" rx="12" fill="#0f3460"/>
  <circle cx="840" cy="475" r="20" fill="#667eea"/>
  <text x="840" y="480" font-family="Arial" font-size="16" fill="white" text-anchor="middle">1</text>
  <text x="880" y="468" font-family="Arial" font-size="15" fill="white">Squats</text>
  <text x="880" y="490" font-family="Arial" font-size="12" fill="#888">3 sets x 12 reps</text>
  <circle cx="1080" cy="475" r="15" fill="#667eea"/>
  <path d="M1073 475 L1078 480 L1088 470" stroke="white" stroke-width="2" fill="none"/>

  <rect x="800" y="520" width="320" height="70" rx="12" fill="#0f3460"/>
  <circle cx="840" cy="555" r="20" fill="#667eea"/>
  <text x="840" y="560" font-family="Arial" font-size="16" fill="white" text-anchor="middle">2</text>
  <text x="880" y="548" font-family="Arial" font-size="15" fill="white">Push-ups</text>
  <text x="880" y="570" font-family="Arial" font-size="12" fill="#888">3 sets x 15 reps</text>
  <circle cx="1080" cy="555" r="15" fill="#667eea"/>
  <path d="M1073 555 L1078 560 L1088 550" stroke="white" stroke-width="2" fill="none"/>

  <rect x="800" y="600" width="320" height="70" rx="12" fill="#0f3460" stroke="#764ba2" stroke-width="2"/>
  <circle cx="840" cy="635" r="20" fill="#764ba2"/>
  <text x="840" y="640" font-family="Arial" font-size="16" fill="white" text-anchor="middle">3</text>
  <text x="880" y="628" font-family="Arial" font-size="15" fill="white">Lunges</text>
  <text x="880" y="650" font-family="Arial" font-size="12" fill="#888">3 sets x 10 reps each</text>
  <text x="1080" y="640" font-family="Arial" font-size="12" fill="#764ba2" text-anchor="middle">In Progress</text>

  <rect x="800" y="680" width="320" height="70" rx="12" fill="#0f3460"/>
  <circle cx="840" cy="715" r="20" fill="#333"/>
  <text x="840" y="720" font-family="Arial" font-size="16" fill="#666" text-anchor="middle">4</text>
  <text x="880" y="708" font-family="Arial" font-size="15" fill="#666">Plank Hold</text>
  <text x="880" y="730" font-family="Arial" font-size="12" fill="#555">3 sets x 45 sec</text>

  <!-- Bottom button -->
  <rect x="800" y="770" width="320" height="50" rx="25" fill="#667eea"/>
  <text x="960" y="802" font-family="Arial" font-size="16" fill="white" text-anchor="middle" font-weight="bold">Complete Exercise</text>
</svg>